<mxfile host="65bd71144e">
    <diagram name="Page-1" id="W1jX0vpfeWbp2apWFsaZ">
        <mxGraphModel dx="1307" dy="1552" grid="1" gridSize="10" guides="1" tooltips="1" connect="1" arrows="1" fold="1" page="1" pageScale="1" pageWidth="850" pageHeight="1100" math="0" shadow="0">
            <root>
                <mxCell id="0"/>
                <mxCell id="1" parent="0"/>
                <mxCell id="57V2GfZuMBP9opQ1hJb3-44" value="" style="whiteSpace=wrap;html=1;aspect=fixed;" parent="1" vertex="1">
                    <mxGeometry x="-110" y="-50" width="1100" height="1100" as="geometry"/>
                </mxCell>
                <mxCell id="45Ob2WuvZmnEj5ZR95Lh-6" value="Produto" style="swimlane;fontStyle=0;childLayout=stackLayout;horizontal=1;startSize=26;fillColor=none;horizontalStack=0;resizeParent=1;resizeParentMax=0;resizeLast=0;collapsible=1;marginBottom=0;whiteSpace=wrap;html=1;" parent="1" vertex="1">
                    <mxGeometry x="30" y="70" width="140" height="162" as="geometry">
                        <mxRectangle x="20" y="70" width="80" height="30" as="alternateBounds"/>
                    </mxGeometry>
                </mxCell>
                <mxCell id="45Ob2WuvZmnEj5ZR95Lh-7" value="- ID: long" style="text;strokeColor=none;fillColor=none;align=left;verticalAlign=top;spacingLeft=4;spacingRight=4;overflow=hidden;rotatable=0;points=[[0,0.5],[1,0.5]];portConstraint=eastwest;whiteSpace=wrap;html=1;" parent="45Ob2WuvZmnEj5ZR95Lh-6" vertex="1">
                    <mxGeometry y="26" width="140" height="26" as="geometry"/>
                </mxCell>
                <mxCell id="45Ob2WuvZmnEj5ZR95Lh-8" value="&lt;div&gt;- Nome: String&lt;/div&gt;" style="text;strokeColor=none;fillColor=none;align=left;verticalAlign=top;spacingLeft=4;spacingRight=4;overflow=hidden;rotatable=0;points=[[0,0.5],[1,0.5]];portConstraint=eastwest;whiteSpace=wrap;html=1;" parent="45Ob2WuvZmnEj5ZR95Lh-6" vertex="1">
                    <mxGeometry y="52" width="140" height="26" as="geometry"/>
                </mxCell>
                <mxCell id="45Ob2WuvZmnEj5ZR95Lh-9" value="- Preço: Double" style="text;strokeColor=none;fillColor=none;align=left;verticalAlign=top;spacingLeft=4;spacingRight=4;overflow=hidden;rotatable=0;points=[[0,0.5],[1,0.5]];portConstraint=eastwest;whiteSpace=wrap;html=1;" parent="45Ob2WuvZmnEj5ZR95Lh-6" vertex="1">
                    <mxGeometry y="78" width="140" height="32" as="geometry"/>
                </mxCell>
                <mxCell id="45Ob2WuvZmnEj5ZR95Lh-11" value="- Quant: Int" style="text;strokeColor=none;fillColor=none;align=left;verticalAlign=top;spacingLeft=4;spacingRight=4;overflow=hidden;rotatable=0;points=[[0,0.5],[1,0.5]];portConstraint=eastwest;whiteSpace=wrap;html=1;" parent="45Ob2WuvZmnEj5ZR95Lh-6" vertex="1">
                    <mxGeometry y="110" width="140" height="26" as="geometry"/>
                </mxCell>
                <mxCell id="45Ob2WuvZmnEj5ZR95Lh-12" value="- Categoria: String" style="text;strokeColor=none;fillColor=none;align=left;verticalAlign=top;spacingLeft=4;spacingRight=4;overflow=hidden;rotatable=0;points=[[0,0.5],[1,0.5]];portConstraint=eastwest;whiteSpace=wrap;html=1;" parent="45Ob2WuvZmnEj5ZR95Lh-6" vertex="1">
                    <mxGeometry y="136" width="140" height="26" as="geometry"/>
                </mxCell>
                <mxCell id="45Ob2WuvZmnEj5ZR95Lh-13" value="Pedido" style="swimlane;fontStyle=1;align=center;verticalAlign=top;childLayout=stackLayout;horizontal=1;startSize=26;horizontalStack=0;resizeParent=1;resizeParentMax=0;resizeLast=0;collapsible=1;marginBottom=0;whiteSpace=wrap;html=1;" parent="1" vertex="1">
                    <mxGeometry x="280" y="270" width="220" height="286" as="geometry"/>
                </mxCell>
                <mxCell id="45Ob2WuvZmnEj5ZR95Lh-17" value="+ ID: Long" style="text;strokeColor=none;fillColor=none;align=left;verticalAlign=top;spacingLeft=4;spacingRight=4;overflow=hidden;rotatable=0;points=[[0,0.5],[1,0.5]];portConstraint=eastwest;whiteSpace=wrap;html=1;" parent="45Ob2WuvZmnEj5ZR95Lh-13" vertex="1">
                    <mxGeometry y="26" width="220" height="26" as="geometry"/>
                </mxCell>
                <mxCell id="45Ob2WuvZmnEj5ZR95Lh-14" value="+ ListaProduto: List&amp;lt;Produto&amp;gt;" style="text;strokeColor=none;fillColor=none;align=left;verticalAlign=top;spacingLeft=4;spacingRight=4;overflow=hidden;rotatable=0;points=[[0,0.5],[1,0.5]];portConstraint=eastwest;whiteSpace=wrap;html=1;" parent="45Ob2WuvZmnEj5ZR95Lh-13" vertex="1">
                    <mxGeometry y="52" width="220" height="26" as="geometry"/>
                </mxCell>
                <mxCell id="45Ob2WuvZmnEj5ZR95Lh-24" value="+ Cliente: Cliente" style="text;strokeColor=none;fillColor=none;align=left;verticalAlign=top;spacingLeft=4;spacingRight=4;overflow=hidden;rotatable=0;points=[[0,0.5],[1,0.5]];portConstraint=eastwest;whiteSpace=wrap;html=1;" parent="45Ob2WuvZmnEj5ZR95Lh-13" vertex="1">
                    <mxGeometry y="78" width="220" height="26" as="geometry"/>
                </mxCell>
                <mxCell id="45Ob2WuvZmnEj5ZR95Lh-23" value="+ Endereço: String" style="text;strokeColor=none;fillColor=none;align=left;verticalAlign=top;spacingLeft=4;spacingRight=4;overflow=hidden;rotatable=0;points=[[0,0.5],[1,0.5]];portConstraint=eastwest;whiteSpace=wrap;html=1;" parent="45Ob2WuvZmnEj5ZR95Lh-13" vertex="1">
                    <mxGeometry y="104" width="220" height="26" as="geometry"/>
                </mxCell>
                <mxCell id="45Ob2WuvZmnEj5ZR95Lh-22" value="+ DataEntrega: Date" style="text;strokeColor=none;fillColor=none;align=left;verticalAlign=top;spacingLeft=4;spacingRight=4;overflow=hidden;rotatable=0;points=[[0,0.5],[1,0.5]];portConstraint=eastwest;whiteSpace=wrap;html=1;" parent="45Ob2WuvZmnEj5ZR95Lh-13" vertex="1">
                    <mxGeometry y="130" width="220" height="26" as="geometry"/>
                </mxCell>
                <mxCell id="45Ob2WuvZmnEj5ZR95Lh-21" value="+ DataPedido: Date" style="text;strokeColor=none;fillColor=none;align=left;verticalAlign=top;spacingLeft=4;spacingRight=4;overflow=hidden;rotatable=0;points=[[0,0.5],[1,0.5]];portConstraint=eastwest;whiteSpace=wrap;html=1;" parent="45Ob2WuvZmnEj5ZR95Lh-13" vertex="1">
                    <mxGeometry y="156" width="220" height="26" as="geometry"/>
                </mxCell>
                <mxCell id="45Ob2WuvZmnEj5ZR95Lh-20" value="+ Total: Double" style="text;strokeColor=none;fillColor=none;align=left;verticalAlign=top;spacingLeft=4;spacingRight=4;overflow=hidden;rotatable=0;points=[[0,0.5],[1,0.5]];portConstraint=eastwest;whiteSpace=wrap;html=1;" parent="45Ob2WuvZmnEj5ZR95Lh-13" vertex="1">
                    <mxGeometry y="182" width="220" height="26" as="geometry"/>
                </mxCell>
                <mxCell id="45Ob2WuvZmnEj5ZR95Lh-19" value="+ Vendedor: Funcionario" style="text;strokeColor=none;fillColor=none;align=left;verticalAlign=top;spacingLeft=4;spacingRight=4;overflow=hidden;rotatable=0;points=[[0,0.5],[1,0.5]];portConstraint=eastwest;whiteSpace=wrap;html=1;" parent="45Ob2WuvZmnEj5ZR95Lh-13" vertex="1">
                    <mxGeometry y="208" width="220" height="26" as="geometry"/>
                </mxCell>
                <mxCell id="45Ob2WuvZmnEj5ZR95Lh-25" value="+ StatusPagamento: String" style="text;strokeColor=none;fillColor=none;align=left;verticalAlign=top;spacingLeft=4;spacingRight=4;overflow=hidden;rotatable=0;points=[[0,0.5],[1,0.5]];portConstraint=eastwest;whiteSpace=wrap;html=1;" parent="45Ob2WuvZmnEj5ZR95Lh-13" vertex="1">
                    <mxGeometry y="234" width="220" height="26" as="geometry"/>
                </mxCell>
                <mxCell id="45Ob2WuvZmnEj5ZR95Lh-18" value="+ StatusEntrega: String" style="text;strokeColor=none;fillColor=none;align=left;verticalAlign=top;spacingLeft=4;spacingRight=4;overflow=hidden;rotatable=0;points=[[0,0.5],[1,0.5]];portConstraint=eastwest;whiteSpace=wrap;html=1;" parent="45Ob2WuvZmnEj5ZR95Lh-13" vertex="1">
                    <mxGeometry y="260" width="220" height="26" as="geometry"/>
                </mxCell>
                <mxCell id="45Ob2WuvZmnEj5ZR95Lh-28" value="Cliente" style="swimlane;fontStyle=0;childLayout=stackLayout;horizontal=1;startSize=26;fillColor=none;horizontalStack=0;resizeParent=1;resizeParentMax=0;resizeLast=0;collapsible=1;marginBottom=0;whiteSpace=wrap;html=1;" parent="1" vertex="1">
                    <mxGeometry x="640" y="75" width="220" height="152" as="geometry"/>
                </mxCell>
                <mxCell id="45Ob2WuvZmnEj5ZR95Lh-29" value="&lt;div&gt;+ ID: Long&lt;/div&gt;" style="text;strokeColor=none;fillColor=none;align=left;verticalAlign=top;spacingLeft=4;spacingRight=4;overflow=hidden;rotatable=0;points=[[0,0.5],[1,0.5]];portConstraint=eastwest;whiteSpace=wrap;html=1;" parent="45Ob2WuvZmnEj5ZR95Lh-28" vertex="1">
                    <mxGeometry y="26" width="220" height="22" as="geometry"/>
                </mxCell>
                <mxCell id="45Ob2WuvZmnEj5ZR95Lh-30" value="+ Nome: String" style="text;strokeColor=none;fillColor=none;align=left;verticalAlign=top;spacingLeft=4;spacingRight=4;overflow=hidden;rotatable=0;points=[[0,0.5],[1,0.5]];portConstraint=eastwest;whiteSpace=wrap;html=1;" parent="45Ob2WuvZmnEj5ZR95Lh-28" vertex="1">
                    <mxGeometry y="48" width="220" height="26" as="geometry"/>
                </mxCell>
                <mxCell id="45Ob2WuvZmnEj5ZR95Lh-31" value="+ Telefone: String" style="text;strokeColor=none;fillColor=none;align=left;verticalAlign=top;spacingLeft=4;spacingRight=4;overflow=hidden;rotatable=0;points=[[0,0.5],[1,0.5]];portConstraint=eastwest;whiteSpace=wrap;html=1;" parent="45Ob2WuvZmnEj5ZR95Lh-28" vertex="1">
                    <mxGeometry y="74" width="220" height="26" as="geometry"/>
                </mxCell>
                <mxCell id="45Ob2WuvZmnEj5ZR95Lh-32" value="+ Email: String" style="text;strokeColor=none;fillColor=none;align=left;verticalAlign=top;spacingLeft=4;spacingRight=4;overflow=hidden;rotatable=0;points=[[0,0.5],[1,0.5]];portConstraint=eastwest;whiteSpace=wrap;html=1;" parent="45Ob2WuvZmnEj5ZR95Lh-28" vertex="1">
                    <mxGeometry y="100" width="220" height="26" as="geometry"/>
                </mxCell>
                <mxCell id="45Ob2WuvZmnEj5ZR95Lh-33" value="+ Endereço: List&amp;lt;Endereço&amp;gt;" style="text;strokeColor=none;fillColor=none;align=left;verticalAlign=top;spacingLeft=4;spacingRight=4;overflow=hidden;rotatable=0;points=[[0,0.5],[1,0.5]];portConstraint=eastwest;whiteSpace=wrap;html=1;" parent="45Ob2WuvZmnEj5ZR95Lh-28" vertex="1">
                    <mxGeometry y="126" width="220" height="26" as="geometry"/>
                </mxCell>
                <mxCell id="45Ob2WuvZmnEj5ZR95Lh-35" value="Endereço" style="swimlane;fontStyle=0;childLayout=stackLayout;horizontal=1;startSize=26;fillColor=none;horizontalStack=0;resizeParent=1;resizeParentMax=0;resizeLast=0;collapsible=1;marginBottom=0;whiteSpace=wrap;html=1;" parent="1" vertex="1">
                    <mxGeometry x="640" y="320" width="220" height="156" as="geometry"/>
                </mxCell>
                <mxCell id="45Ob2WuvZmnEj5ZR95Lh-36" value="+ Rua: String" style="text;strokeColor=none;fillColor=none;align=left;verticalAlign=top;spacingLeft=4;spacingRight=4;overflow=hidden;rotatable=0;points=[[0,0.5],[1,0.5]];portConstraint=eastwest;whiteSpace=wrap;html=1;" parent="45Ob2WuvZmnEj5ZR95Lh-35" vertex="1">
                    <mxGeometry y="26" width="220" height="26" as="geometry"/>
                </mxCell>
                <mxCell id="45Ob2WuvZmnEj5ZR95Lh-37" value="+ Bairro: String" style="text;strokeColor=none;fillColor=none;align=left;verticalAlign=top;spacingLeft=4;spacingRight=4;overflow=hidden;rotatable=0;points=[[0,0.5],[1,0.5]];portConstraint=eastwest;whiteSpace=wrap;html=1;" parent="45Ob2WuvZmnEj5ZR95Lh-35" vertex="1">
                    <mxGeometry y="52" width="220" height="26" as="geometry"/>
                </mxCell>
                <mxCell id="45Ob2WuvZmnEj5ZR95Lh-38" value="+ Numero: String" style="text;strokeColor=none;fillColor=none;align=left;verticalAlign=top;spacingLeft=4;spacingRight=4;overflow=hidden;rotatable=0;points=[[0,0.5],[1,0.5]];portConstraint=eastwest;whiteSpace=wrap;html=1;" parent="45Ob2WuvZmnEj5ZR95Lh-35" vertex="1">
                    <mxGeometry y="78" width="220" height="26" as="geometry"/>
                </mxCell>
                <mxCell id="45Ob2WuvZmnEj5ZR95Lh-39" value="+ Cep: String" style="text;strokeColor=none;fillColor=none;align=left;verticalAlign=top;spacingLeft=4;spacingRight=4;overflow=hidden;rotatable=0;points=[[0,0.5],[1,0.5]];portConstraint=eastwest;whiteSpace=wrap;html=1;" parent="45Ob2WuvZmnEj5ZR95Lh-35" vertex="1">
                    <mxGeometry y="104" width="220" height="26" as="geometry"/>
                </mxCell>
                <mxCell id="45Ob2WuvZmnEj5ZR95Lh-40" value="+ Complemento: String" style="text;strokeColor=none;fillColor=none;align=left;verticalAlign=top;spacingLeft=4;spacingRight=4;overflow=hidden;rotatable=0;points=[[0,0.5],[1,0.5]];portConstraint=eastwest;whiteSpace=wrap;html=1;" parent="45Ob2WuvZmnEj5ZR95Lh-35" vertex="1">
                    <mxGeometry y="130" width="220" height="26" as="geometry"/>
                </mxCell>
                <mxCell id="45Ob2WuvZmnEj5ZR95Lh-42" value="&lt;div&gt;«abstract»&lt;/div&gt;&lt;div&gt;Funcionario&lt;br&gt;&lt;/div&gt;" style="swimlane;fontStyle=1;align=center;verticalAlign=top;childLayout=stackLayout;horizontal=1;startSize=50;horizontalStack=0;resizeParent=1;resizeParentMax=0;resizeLast=0;collapsible=1;marginBottom=0;whiteSpace=wrap;html=1;" parent="1" vertex="1">
                    <mxGeometry x="260" y="710" width="220" height="310" as="geometry"/>
                </mxCell>
                <mxCell id="45Ob2WuvZmnEj5ZR95Lh-49" value="+ Id: Long" style="text;strokeColor=none;fillColor=none;align=left;verticalAlign=top;spacingLeft=4;spacingRight=4;overflow=hidden;rotatable=0;points=[[0,0.5],[1,0.5]];portConstraint=eastwest;whiteSpace=wrap;html=1;" parent="45Ob2WuvZmnEj5ZR95Lh-42" vertex="1">
                    <mxGeometry y="50" width="220" height="26" as="geometry"/>
                </mxCell>
                <mxCell id="45Ob2WuvZmnEj5ZR95Lh-48" value="+ Nome: String" style="text;strokeColor=none;fillColor=none;align=left;verticalAlign=top;spacingLeft=4;spacingRight=4;overflow=hidden;rotatable=0;points=[[0,0.5],[1,0.5]];portConstraint=eastwest;whiteSpace=wrap;html=1;" parent="45Ob2WuvZmnEj5ZR95Lh-42" vertex="1">
                    <mxGeometry y="76" width="220" height="26" as="geometry"/>
                </mxCell>
                <mxCell id="45Ob2WuvZmnEj5ZR95Lh-47" value="+ Email: String" style="text;strokeColor=none;fillColor=none;align=left;verticalAlign=top;spacingLeft=4;spacingRight=4;overflow=hidden;rotatable=0;points=[[0,0.5],[1,0.5]];portConstraint=eastwest;whiteSpace=wrap;html=1;" parent="45Ob2WuvZmnEj5ZR95Lh-42" vertex="1">
                    <mxGeometry y="102" width="220" height="26" as="geometry"/>
                </mxCell>
                <mxCell id="45Ob2WuvZmnEj5ZR95Lh-43" value="+ Senha: String" style="text;strokeColor=none;fillColor=none;align=left;verticalAlign=top;spacingLeft=4;spacingRight=4;overflow=hidden;rotatable=0;points=[[0,0.5],[1,0.5]];portConstraint=eastwest;whiteSpace=wrap;html=1;" parent="45Ob2WuvZmnEj5ZR95Lh-42" vertex="1">
                    <mxGeometry y="128" width="220" height="26" as="geometry"/>
                </mxCell>
                <mxCell id="45Ob2WuvZmnEj5ZR95Lh-44" value="" style="line;strokeWidth=1;fillColor=none;align=left;verticalAlign=middle;spacingTop=-1;spacingLeft=3;spacingRight=3;rotatable=0;labelPosition=right;points=[];portConstraint=eastwest;strokeColor=inherit;" parent="45Ob2WuvZmnEj5ZR95Lh-42" vertex="1">
                    <mxGeometry y="154" width="220" height="8" as="geometry"/>
                </mxCell>
                <mxCell id="45Ob2WuvZmnEj5ZR95Lh-45" value="+ CadastraProduto(Produto): void" style="text;strokeColor=none;fillColor=none;align=left;verticalAlign=top;spacingLeft=4;spacingRight=4;overflow=hidden;rotatable=0;points=[[0,0.5],[1,0.5]];portConstraint=eastwest;whiteSpace=wrap;html=1;" parent="45Ob2WuvZmnEj5ZR95Lh-42" vertex="1">
                    <mxGeometry y="162" width="220" height="24" as="geometry"/>
                </mxCell>
                <mxCell id="45Ob2WuvZmnEj5ZR95Lh-50" value="+ Vender(Venda): void" style="text;strokeColor=none;fillColor=none;align=left;verticalAlign=top;spacingLeft=4;spacingRight=4;overflow=hidden;rotatable=0;points=[[0,0.5],[1,0.5]];portConstraint=eastwest;whiteSpace=wrap;html=1;" parent="45Ob2WuvZmnEj5ZR95Lh-42" vertex="1">
                    <mxGeometry y="186" width="220" height="24" as="geometry"/>
                </mxCell>
                <mxCell id="45Ob2WuvZmnEj5ZR95Lh-51" value="+ AnotarPedido(Pedido): void" style="text;strokeColor=none;fillColor=none;align=left;verticalAlign=top;spacingLeft=4;spacingRight=4;overflow=hidden;rotatable=0;points=[[0,0.5],[1,0.5]];portConstraint=eastwest;whiteSpace=wrap;html=1;" parent="45Ob2WuvZmnEj5ZR95Lh-42" vertex="1">
                    <mxGeometry y="210" width="220" height="24" as="geometry"/>
                </mxCell>
                <mxCell id="45Ob2WuvZmnEj5ZR95Lh-68" value="+ CadastraCliente(Pedido): void" style="text;strokeColor=none;fillColor=none;align=left;verticalAlign=top;spacingLeft=4;spacingRight=4;overflow=hidden;rotatable=0;points=[[0,0.5],[1,0.5]];portConstraint=eastwest;whiteSpace=wrap;html=1;" parent="45Ob2WuvZmnEj5ZR95Lh-42" vertex="1">
                    <mxGeometry y="234" width="220" height="24" as="geometry"/>
                </mxCell>
                <mxCell id="45Ob2WuvZmnEj5ZR95Lh-16" value="+ ConfirmarPagamento(): void" style="text;strokeColor=none;fillColor=none;align=left;verticalAlign=top;spacingLeft=4;spacingRight=4;overflow=hidden;rotatable=0;points=[[0,0.5],[1,0.5]];portConstraint=eastwest;whiteSpace=wrap;html=1;" parent="45Ob2WuvZmnEj5ZR95Lh-42" vertex="1">
                    <mxGeometry y="258" width="220" height="26" as="geometry"/>
                </mxCell>
                <mxCell id="45Ob2WuvZmnEj5ZR95Lh-26" value="+ ConfirmarEntrega(): void" style="text;strokeColor=none;fillColor=none;align=left;verticalAlign=top;spacingLeft=4;spacingRight=4;overflow=hidden;rotatable=0;points=[[0,0.5],[1,0.5]];portConstraint=eastwest;whiteSpace=wrap;html=1;" parent="45Ob2WuvZmnEj5ZR95Lh-42" vertex="1">
                    <mxGeometry y="284" width="220" height="26" as="geometry"/>
                </mxCell>
                <mxCell id="45Ob2WuvZmnEj5ZR95Lh-60" value="Adm" style="swimlane;fontStyle=1;align=center;verticalAlign=top;childLayout=stackLayout;horizontal=1;startSize=26;horizontalStack=0;resizeParent=1;resizeParentMax=0;resizeLast=0;collapsible=1;marginBottom=0;whiteSpace=wrap;html=1;" parent="1" vertex="1">
                    <mxGeometry x="550" y="790" width="220" height="60" as="geometry"/>
                </mxCell>
                <mxCell id="45Ob2WuvZmnEj5ZR95Lh-63" value="+ CadastrarVendedor(Vendedor): void" style="text;strokeColor=none;fillColor=none;align=left;verticalAlign=top;spacingLeft=4;spacingRight=4;overflow=hidden;rotatable=0;points=[[0,0.5],[1,0.5]];portConstraint=eastwest;whiteSpace=wrap;html=1;" parent="45Ob2WuvZmnEj5ZR95Lh-60" vertex="1">
                    <mxGeometry y="26" width="220" height="34" as="geometry"/>
                </mxCell>
                <mxCell id="45Ob2WuvZmnEj5ZR95Lh-64" value="Vendedor" style="swimlane;fontStyle=1;align=center;verticalAlign=top;childLayout=stackLayout;horizontal=1;startSize=80;horizontalStack=0;resizeParent=1;resizeParentMax=0;resizeLast=0;collapsible=1;marginBottom=0;whiteSpace=wrap;html=1;points=[[0,0,0,0,0],[0,0.25,0,0,0],[0,0.5,0,0,0],[0,0.75,0,0,0],[0,1,0,0,0],[0.25,0,0,0,0],[0.25,1,0,0,0],[0.5,0,0,0,0],[0.5,1,0,0,0],[0.75,0,0,0,0],[0.75,1,0,0,0],[1,0,0,0,0],[1,0.25,0,0,0],[1,0.5,0,0,0],[1,0.75,0,0,0],[1,1,0,0,0]];" parent="1" vertex="1">
                    <mxGeometry x="580" y="950" width="180" height="30" as="geometry"/>
                </mxCell>
                <mxCell id="57V2GfZuMBP9opQ1hJb3-2" value="" style="endArrow=block;dashed=1;endFill=0;endSize=12;html=1;rounded=0;exitX=0.5;exitY=0;exitDx=0;exitDy=0;exitPerimeter=0;entryX=1;entryY=0.5;entryDx=0;entryDy=0;" parent="1" source="45Ob2WuvZmnEj5ZR95Lh-64" target="45Ob2WuvZmnEj5ZR95Lh-43" edge="1">
                    <mxGeometry width="160" relative="1" as="geometry">
                        <mxPoint x="591.46" y="952.29" as="sourcePoint"/>
                        <mxPoint x="509.99999999999994" y="810.002" as="targetPoint"/>
                        <Array as="points"/>
                    </mxGeometry>
                </mxCell>
                <mxCell id="57V2GfZuMBP9opQ1hJb3-3" value="" style="endArrow=block;dashed=1;endFill=0;endSize=12;html=1;rounded=0;exitX=0.5;exitY=0;exitDx=0;exitDy=0;entryX=1.016;entryY=0.069;entryDx=0;entryDy=0;entryPerimeter=0;" parent="1" source="45Ob2WuvZmnEj5ZR95Lh-60" target="45Ob2WuvZmnEj5ZR95Lh-42" edge="1">
                    <mxGeometry width="160" relative="1" as="geometry">
                        <mxPoint x="320" y="800" as="sourcePoint"/>
                        <mxPoint x="480" y="800" as="targetPoint"/>
                    </mxGeometry>
                </mxCell>
                <mxCell id="57V2GfZuMBP9opQ1hJb3-4" value="Venda" style="swimlane;fontStyle=1;align=center;verticalAlign=top;childLayout=stackLayout;horizontal=1;startSize=26;horizontalStack=0;resizeParent=1;resizeParentMax=0;resizeLast=0;collapsible=1;marginBottom=0;whiteSpace=wrap;html=1;" parent="1" vertex="1">
                    <mxGeometry x="280" y="30" width="220" height="208" as="geometry"/>
                </mxCell>
                <mxCell id="57V2GfZuMBP9opQ1hJb3-6" value="+ ID: Long" style="text;strokeColor=none;fillColor=none;align=left;verticalAlign=top;spacingLeft=4;spacingRight=4;overflow=hidden;rotatable=0;points=[[0,0.5],[1,0.5]];portConstraint=eastwest;whiteSpace=wrap;html=1;" parent="57V2GfZuMBP9opQ1hJb3-4" vertex="1">
                    <mxGeometry y="26" width="220" height="26" as="geometry"/>
                </mxCell>
                <mxCell id="57V2GfZuMBP9opQ1hJb3-5" value="+ ListaProduto: List&amp;lt;Produto&amp;gt;" style="text;strokeColor=none;fillColor=none;align=left;verticalAlign=top;spacingLeft=4;spacingRight=4;overflow=hidden;rotatable=0;points=[[0,0.5],[1,0.5]];portConstraint=eastwest;whiteSpace=wrap;html=1;" parent="57V2GfZuMBP9opQ1hJb3-4" vertex="1">
                    <mxGeometry y="52" width="220" height="26" as="geometry"/>
                </mxCell>
                <mxCell id="57V2GfZuMBP9opQ1hJb3-7" value="+ Cliente: Cliente" style="text;strokeColor=none;fillColor=none;align=left;verticalAlign=top;spacingLeft=4;spacingRight=4;overflow=hidden;rotatable=0;points=[[0,0.5],[1,0.5]];portConstraint=eastwest;whiteSpace=wrap;html=1;" parent="57V2GfZuMBP9opQ1hJb3-4" vertex="1">
                    <mxGeometry y="78" width="220" height="26" as="geometry"/>
                </mxCell>
                <mxCell id="57V2GfZuMBP9opQ1hJb3-10" value="+ DataVenda: Date" style="text;strokeColor=none;fillColor=none;align=left;verticalAlign=top;spacingLeft=4;spacingRight=4;overflow=hidden;rotatable=0;points=[[0,0.5],[1,0.5]];portConstraint=eastwest;whiteSpace=wrap;html=1;" parent="57V2GfZuMBP9opQ1hJb3-4" vertex="1">
                    <mxGeometry y="104" width="220" height="26" as="geometry"/>
                </mxCell>
                <mxCell id="57V2GfZuMBP9opQ1hJb3-11" value="+ Total: Double" style="text;strokeColor=none;fillColor=none;align=left;verticalAlign=top;spacingLeft=4;spacingRight=4;overflow=hidden;rotatable=0;points=[[0,0.5],[1,0.5]];portConstraint=eastwest;whiteSpace=wrap;html=1;" parent="57V2GfZuMBP9opQ1hJb3-4" vertex="1">
                    <mxGeometry y="130" width="220" height="26" as="geometry"/>
                </mxCell>
                <mxCell id="57V2GfZuMBP9opQ1hJb3-12" value="+ Vendedor: Funcionario" style="text;strokeColor=none;fillColor=none;align=left;verticalAlign=top;spacingLeft=4;spacingRight=4;overflow=hidden;rotatable=0;points=[[0,0.5],[1,0.5]];portConstraint=eastwest;whiteSpace=wrap;html=1;" parent="57V2GfZuMBP9opQ1hJb3-4" vertex="1">
                    <mxGeometry y="156" width="220" height="26" as="geometry"/>
                </mxCell>
                <mxCell id="57V2GfZuMBP9opQ1hJb3-13" value="+ StatusPagamento: String" style="text;strokeColor=none;fillColor=none;align=left;verticalAlign=top;spacingLeft=4;spacingRight=4;overflow=hidden;rotatable=0;points=[[0,0.5],[1,0.5]];portConstraint=eastwest;whiteSpace=wrap;html=1;" parent="57V2GfZuMBP9opQ1hJb3-4" vertex="1">
                    <mxGeometry y="182" width="220" height="26" as="geometry"/>
                </mxCell>
                <mxCell id="57V2GfZuMBP9opQ1hJb3-21" value="1..*" style="endArrow=open;html=1;endSize=12;startArrow=diamondThin;startSize=14;startFill=1;edgeStyle=orthogonalEdgeStyle;align=left;verticalAlign=bottom;rounded=0;exitX=-0.017;exitY=0.041;exitDx=0;exitDy=0;exitPerimeter=0;entryX=1;entryY=0.123;entryDx=0;entryDy=0;entryPerimeter=0;" parent="1" target="45Ob2WuvZmnEj5ZR95Lh-6" edge="1">
                    <mxGeometry x="-1" y="3" relative="1" as="geometry">
                        <mxPoint x="284.30000000000007" y="39.248000000000005" as="sourcePoint"/>
                        <mxPoint x="179.99999999999997" y="89.99799999999999" as="targetPoint"/>
                        <Array as="points">
                            <mxPoint x="258" y="39"/>
                            <mxPoint x="258" y="90"/>
                        </Array>
                    </mxGeometry>
                </mxCell>
                <mxCell id="57V2GfZuMBP9opQ1hJb3-23" value="1..*" style="endArrow=open;html=1;endSize=12;startArrow=diamondThin;startSize=14;startFill=1;edgeStyle=orthogonalEdgeStyle;align=left;verticalAlign=bottom;rounded=0;exitX=0;exitY=0;exitDx=0;exitDy=0;entryX=1.017;entryY=0.869;entryDx=0;entryDy=0;entryPerimeter=0;" parent="1" source="45Ob2WuvZmnEj5ZR95Lh-13" target="45Ob2WuvZmnEj5ZR95Lh-7" edge="1">
                    <mxGeometry x="-1" y="3" relative="1" as="geometry">
                        <mxPoint x="286" y="49" as="sourcePoint"/>
                        <mxPoint x="185" y="95" as="targetPoint"/>
                        <Array as="points">
                            <mxPoint x="250" y="270"/>
                            <mxPoint x="250" y="119"/>
                        </Array>
                    </mxGeometry>
                </mxCell>
                <mxCell id="57V2GfZuMBP9opQ1hJb3-25" value="1..1" style="endArrow=open;html=1;endSize=12;startArrow=diamondThin;startSize=14;startFill=0;edgeStyle=orthogonalEdgeStyle;align=left;verticalAlign=bottom;rounded=0;exitX=1.008;exitY=0.048;exitDx=0;exitDy=0;exitPerimeter=0;entryX=0.362;entryY=0.001;entryDx=0;entryDy=0;entryPerimeter=0;" parent="1" source="57V2GfZuMBP9opQ1hJb3-4" target="45Ob2WuvZmnEj5ZR95Lh-28" edge="1">
                    <mxGeometry x="-1" y="3" relative="1" as="geometry">
                        <mxPoint x="420" y="180" as="sourcePoint"/>
                        <mxPoint x="710" y="60" as="targetPoint"/>
                        <Array as="points">
                            <mxPoint x="720" y="40"/>
                            <mxPoint x="720" y="75"/>
                        </Array>
                    </mxGeometry>
                </mxCell>
                <mxCell id="57V2GfZuMBP9opQ1hJb3-26" value="1..1" style="endArrow=open;html=1;endSize=12;startArrow=diamondThin;startSize=14;startFill=0;edgeStyle=orthogonalEdgeStyle;align=left;verticalAlign=bottom;rounded=0;exitX=1;exitY=0.07;exitDx=0;exitDy=0;exitPerimeter=0;" parent="1" edge="1">
                    <mxGeometry x="-1" y="3" relative="1" as="geometry">
                        <mxPoint x="510" y="289.02" as="sourcePoint"/>
                        <mxPoint x="640" y="90" as="targetPoint"/>
                        <Array as="points">
                            <mxPoint x="560" y="289"/>
                            <mxPoint x="560" y="90"/>
                        </Array>
                    </mxGeometry>
                </mxCell>
                <mxCell id="57V2GfZuMBP9opQ1hJb3-30" value="Relation" style="endArrow=open;html=1;endSize=12;startArrow=diamondThin;startSize=14;startFill=0;edgeStyle=orthogonalEdgeStyle;rounded=0;exitX=1;exitY=0.5;exitDx=0;exitDy=0;entryX=0.363;entryY=-0.019;entryDx=0;entryDy=0;entryPerimeter=0;" parent="1" source="45Ob2WuvZmnEj5ZR95Lh-30" target="45Ob2WuvZmnEj5ZR95Lh-35" edge="1">
                    <mxGeometry relative="1" as="geometry">
                        <mxPoint x="600" y="280" as="sourcePoint"/>
                        <mxPoint x="760" y="280" as="targetPoint"/>
                        <Array as="points">
                            <mxPoint x="960" y="136"/>
                            <mxPoint x="960" y="250"/>
                            <mxPoint x="720" y="250"/>
                        </Array>
                    </mxGeometry>
                </mxCell>
                <mxCell id="57V2GfZuMBP9opQ1hJb3-31" value="1..*" style="edgeLabel;resizable=0;html=1;align=left;verticalAlign=top;" parent="57V2GfZuMBP9opQ1hJb3-30" connectable="0" vertex="1">
                    <mxGeometry x="-1" relative="1" as="geometry"/>
                </mxCell>
                <mxCell id="57V2GfZuMBP9opQ1hJb3-32" value="1..*" style="edgeLabel;resizable=0;html=1;align=right;verticalAlign=top;" parent="57V2GfZuMBP9opQ1hJb3-30" connectable="0" vertex="1">
                    <mxGeometry x="1" relative="1" as="geometry">
                        <mxPoint x="-10" y="-27" as="offset"/>
                    </mxGeometry>
                </mxCell>
                <mxCell id="57V2GfZuMBP9opQ1hJb3-33" value="1..*" style="edgeLabel;resizable=0;html=1;align=left;verticalAlign=top;" parent="57V2GfZuMBP9opQ1hJb3-30" connectable="0" vertex="1">
                    <mxGeometry x="-1" relative="1" as="geometry">
                        <mxPoint x="-250" y="-36" as="offset"/>
                    </mxGeometry>
                </mxCell>
                <mxCell id="57V2GfZuMBP9opQ1hJb3-34" value="1..*" style="edgeLabel;resizable=0;html=1;align=left;verticalAlign=top;" parent="57V2GfZuMBP9opQ1hJb3-30" connectable="0" vertex="1">
                    <mxGeometry x="-1" relative="1" as="geometry">
                        <mxPoint x="-680" y="-6" as="offset"/>
                    </mxGeometry>
                </mxCell>
                <mxCell id="57V2GfZuMBP9opQ1hJb3-35" value="1..*" style="edgeLabel;resizable=0;html=1;align=left;verticalAlign=top;" parent="57V2GfZuMBP9opQ1hJb3-30" connectable="0" vertex="1">
                    <mxGeometry x="-1" relative="1" as="geometry">
                        <mxPoint x="-680" y="-76" as="offset"/>
                    </mxGeometry>
                </mxCell>
                <mxCell id="57V2GfZuMBP9opQ1hJb3-37" value="" style="endArrow=block;endFill=1;html=1;edgeStyle=orthogonalEdgeStyle;align=left;verticalAlign=top;rounded=0;exitX=1;exitY=0.5;exitDx=0;exitDy=0;exitPerimeter=0;entryX=0.552;entryY=1.029;entryDx=0;entryDy=0;entryPerimeter=0;" parent="1" source="45Ob2WuvZmnEj5ZR95Lh-64" target="45Ob2WuvZmnEj5ZR95Lh-63" edge="1">
                    <mxGeometry x="-1" relative="1" as="geometry">
                        <mxPoint x="520" y="900" as="sourcePoint"/>
                        <mxPoint x="680" y="900" as="targetPoint"/>
                    </mxGeometry>
                </mxCell>
                <mxCell id="57V2GfZuMBP9opQ1hJb3-38" value="1..1" style="edgeLabel;resizable=0;html=1;align=left;verticalAlign=bottom;" parent="57V2GfZuMBP9opQ1hJb3-37" connectable="0" vertex="1">
                    <mxGeometry x="-1" relative="1" as="geometry"/>
                </mxCell>
                <mxCell id="57V2GfZuMBP9opQ1hJb3-39" value="1..*" style="edgeLabel;resizable=0;html=1;align=left;verticalAlign=bottom;" parent="57V2GfZuMBP9opQ1hJb3-37" connectable="0" vertex="1">
                    <mxGeometry x="-1" relative="1" as="geometry">
                        <mxPoint x="-80" y="-95" as="offset"/>
                    </mxGeometry>
                </mxCell>
                <mxCell id="57V2GfZuMBP9opQ1hJb3-43" value="1..*" style="edgeLabel;resizable=0;html=1;align=left;verticalAlign=bottom;" parent="57V2GfZuMBP9opQ1hJb3-37" connectable="0" vertex="1">
                    <mxGeometry x="-1" relative="1" as="geometry">
                        <mxPoint x="-390" y="-275" as="offset"/>
                    </mxGeometry>
                </mxCell>
                <mxCell id="57V2GfZuMBP9opQ1hJb3-40" value="*..1" style="endArrow=open;html=1;endSize=12;startArrow=diamondThin;startSize=14;startFill=1;edgeStyle=orthogonalEdgeStyle;align=left;verticalAlign=bottom;rounded=0;exitX=1;exitY=0.5;exitDx=0;exitDy=0;entryX=0.5;entryY=0;entryDx=0;entryDy=0;" parent="1" source="45Ob2WuvZmnEj5ZR95Lh-22" target="45Ob2WuvZmnEj5ZR95Lh-42" edge="1">
                    <mxGeometry x="-1" y="3" relative="1" as="geometry">
                        <mxPoint x="390" y="670" as="sourcePoint"/>
                        <mxPoint x="550" y="670" as="targetPoint"/>
                        <Array as="points">
                            <mxPoint x="590" y="413"/>
                            <mxPoint x="590" y="670"/>
                            <mxPoint x="370" y="670"/>
                        </Array>
                    </mxGeometry>
                </mxCell>
                <mxCell id="57V2GfZuMBP9opQ1hJb3-41" value="*..1" style="endArrow=open;html=1;endSize=12;startArrow=diamondThin;startSize=14;startFill=1;edgeStyle=orthogonalEdgeStyle;align=left;verticalAlign=bottom;rounded=0;exitX=1;exitY=0.5;exitDx=0;exitDy=0;" parent="1" source="57V2GfZuMBP9opQ1hJb3-11" edge="1">
                    <mxGeometry x="-1" y="3" relative="1" as="geometry">
                        <mxPoint x="510" y="423" as="sourcePoint"/>
                        <mxPoint x="370" y="710" as="targetPoint"/>
                        <Array as="points">
                            <mxPoint x="590" y="173"/>
                            <mxPoint x="590" y="670"/>
                            <mxPoint x="370" y="670"/>
                        </Array>
                    </mxGeometry>
                </mxCell>
            </root>
        </mxGraphModel>
    </diagram>
</mxfile>